<svg width="111" height="106" viewBox="0 0 111 106" fill="none" xmlns="http://www.w3.org/2000/svg">
<path opacity="0.2" d="M76.4275 96.5117C76.4275 96.5117 58.3863 103.315 40.2199 93.7543C22.0534 84.194 12.4565 64.5023 4.25027 48.7417C-3.95595 32.9811 0.040678 16.6153 13.4814 8.83864C26.922 1.06202 36.5164 11.7277 55.6827 11.7424C74.8489 11.757 79.923 8.94844 96.1149 19.0627C112.307 29.1769 115.893 53.9708 103.883 72.7206C91.8728 91.4704 76.4275 96.5117 76.4275 96.5117Z" fill="white"/>
<path d="M74.6918 90.6907C86.5628 84.2684 100.42 68.1123 94.6483 45.9483C88.8761 23.7843 76.6651 8.80923 55.42 11.2627C34.1749 13.7162 16.5228 26.6099 16.006 54.3829C15.4892 82.1558 48.6612 104.774 74.6918 90.6907Z" fill="#343D2D"/>
<path opacity="0.2" d="M76.5879 94.2814C89.8832 87.249 105.404 69.5582 98.9389 45.2889C92.4741 21.0196 78.7979 4.62213 55.0036 7.30869C31.2093 9.99525 11.4392 24.1137 10.8604 54.5247C10.2815 84.9358 47.4338 109.703 76.5879 94.2814Z" fill="white"/>
<path d="M67.7447 5.572L57.1346 6.63953" stroke="#B68E6E" stroke-width="0.8" stroke-linecap="round" stroke-linejoin="round"/>
<path d="M71.8381 11.3206L63.1449 12.1964" stroke="#B68E6E" stroke-width="0.8" stroke-linecap="round" stroke-linejoin="round"/>
<path d="M71.7624 9.54733L65.5298 10.1747" stroke="#B68E6E" stroke-width="0.8" stroke-linecap="round" stroke-linejoin="round"/>
<path d="M71.7209 8.54145L61.1403 9.6071" stroke="#B68E6E" stroke-width="0.8" stroke-linecap="round" stroke-linejoin="round"/>
<path d="M64.5863 15.0302C64.5863 15.0302 62.1406 15.6145 62.7488 15.0475C63.3569 14.4805 63.3673 14.0471 62.7689 14.1784C62.1705 14.3097 61.3898 15.4888 61.3354 14.8921C61.2809 14.2955 60.9361 14.7717 60.8624 14.8284C60.7888 14.8851 60.0267 14.8141 60.0084 14.8901C59.9901 14.9662 60.0825 15.1454 57.7098 15.3858" stroke="#B68E6E" stroke-width="0.8" stroke-linecap="round" stroke-linejoin="round"/>
<path d="M56.0907 11.7981C55.2111 11.259 54.1436 12.0018 54.9266 14.1263L53.9777 14.7995L54.0029 15.3733L57.491 15.0229L57.4597 14.2549L56.0856 14.14C56.0856 14.14 56.9183 12.3072 56.0907 11.7981Z" stroke="#B68E6E" stroke-width="0.8" stroke-linecap="round" stroke-linejoin="round"/>
<path d="M53.8231 11.1698L57.3132 10.8181L57.4935 15.0305L54.0034 15.3822L53.8231 11.1698Z" stroke="#B68E6E" stroke-width="0.8" stroke-linecap="round" stroke-linejoin="round"/>
<path d="M73.0818 6.32619L51.4762 8.50356" stroke="#B68E6E" stroke-width="0.8" stroke-linecap="round" stroke-linejoin="round"/>
<path d="M52.6757 5.70632L71.6559 3.79375C72.381 3.72069 72.9898 4.15411 73.0158 4.76182L73.4306 14.4517C73.4566 15.0594 72.8899 15.6113 72.1649 15.6843L53.1847 17.5969C52.4597 17.67 51.8508 17.2365 51.8248 16.6288L51.41 6.93895C51.384 6.33125 51.9507 5.77938 52.6757 5.70632Z" stroke="#B68E6E" stroke-width="0.8" stroke-linecap="round" stroke-linejoin="round"/>
<path d="M56.6077 99.3421C57.2209 99.3443 57.355 99.5071 57.4691 98.8995" stroke="#B68E6E" stroke-width="0.8" stroke-linecap="round" stroke-linejoin="round"/>
<path d="M57.5337 98.5194L57.9576 96.2297C57.807 96.2041 57.6577 96.1708 57.5101 96.1381" stroke="#B68E6E" stroke-width="0.8" stroke-linecap="round" stroke-linejoin="round"/>
<path d="M57.13 96.08C56.5801 96.078 56.5194 97.3743 56.4754 97.7402" stroke="#B68E6E" stroke-width="0.8" stroke-linecap="round" stroke-linejoin="round"/>
<path d="M56.429 98.1491C56.3998 98.4148 56.3817 98.6832 56.3302 98.9434" stroke="#B68E6E" stroke-width="0.8" stroke-linecap="round" stroke-linejoin="round"/>
<path d="M55.6391 100.858C55.7302 100.628 55.7615 100.379 55.7299 100.135C55.6983 99.8911 55.6048 99.6607 55.4587 99.4663C55.3126 99.2718 55.1187 99.1199 54.896 99.0253C54.6733 98.9308 54.4293 98.8967 54.1878 98.9266" stroke="#B68E6E" stroke-width="0.8" stroke-linecap="round" stroke-linejoin="round"/>
<path d="M53.8082 99.0465C53.5733 99.1571 53.3749 99.3354 53.238 99.5589" stroke="#B68E6E" stroke-width="0.8" stroke-linecap="round" stroke-linejoin="round"/>
<path d="M53.0905 99.8988C52.9914 100.226 53.0107 100.577 53.145 100.888C53.2793 101.198 53.5196 101.448 53.8224 101.591" stroke="#B68E6E" stroke-width="0.8" stroke-linecap="round" stroke-linejoin="round"/>
<path d="M54.1846 101.7C54.382 101.724 54.5828 101.704 54.7734 101.642C54.964 101.58 55.14 101.478 55.2897 101.342" stroke="#B68E6E" stroke-width="0.8" stroke-linecap="round" stroke-linejoin="round"/>
<path d="M56.7092 100.897L55.1425 103.202" stroke="#B68E6E" stroke-width="0.8" stroke-linecap="round" stroke-linejoin="round"/>
<path d="M62.9861 91.9714L61.134 94.6274" stroke="#B68E6E" stroke-width="0.8" stroke-linecap="round" stroke-linejoin="round"/>
<path d="M57.9761 88.6348L51.2658 98.536" stroke="#B68E6E" stroke-width="0.8" stroke-linecap="round" stroke-linejoin="round"/>
<path d="M56.9199 88.0114L55.4437 90.1733" stroke="#B68E6E" stroke-width="0.8" stroke-linecap="round" stroke-linejoin="round"/>
<path d="M55.5658 86.7293L50.9195 93.5098" stroke="#B68E6E" stroke-width="0.8" stroke-linecap="round" stroke-linejoin="round"/>
<path d="M44.2079 79.0908L41.6365 82.9897" stroke="#B68E6E" stroke-width="0.8" stroke-linecap="round" stroke-linejoin="round"/>
<path d="M43.5831 78.5017L37.8489 86.6812" stroke="#B68E6E" stroke-width="0.8" stroke-linecap="round" stroke-linejoin="round"/>
<path d="M45.7646 98.1067L54.727 84.4339" stroke="#B68E6E" stroke-width="0.8" stroke-linecap="round" stroke-linejoin="round" stroke-dasharray="1 2"/>
<path d="M50.5925 83.2705L43.9277 93.2082" stroke="#B68E6E" stroke-width="0.8" stroke-linecap="round" stroke-linejoin="round"/>
<path d="M48.0609 82.5555L46.8392 84.5368" stroke="#B68E6E" stroke-width="0.8" stroke-linecap="round" stroke-linejoin="round"/>
<path d="M47.351 80.9731L42.9073 87.6405" stroke="#B68E6E" stroke-width="0.8" stroke-linecap="round" stroke-linejoin="round"/>
<path d="M36.8845 92.2984L46.1375 78.3143" stroke="#B68E6E" stroke-width="0.8" stroke-linecap="round" stroke-linejoin="round"/>
<path d="M55.8347 104.693L64.8179 91.6233L43.5599 76.4784L33.7924 90.275L55.8347 104.693Z" stroke="#B68E6E" stroke-width="0.8" stroke-linecap="round" stroke-linejoin="round"/>
<path d="M14.6013 70.7544L10.86 72.0958L13.5255 68.6414C11.899 66.9945 10.9104 64.8234 10.736 62.5153" stroke="#B68E6E" stroke-linecap="round" stroke-linejoin="round"/>
<path d="M19.2754 72.0043C17.9842 71.6578 16.7554 71.1106 15.634 70.3829" stroke="#B68E6E" stroke-linecap="round" stroke-linejoin="round"/>
<path d="M33.5923 64.2627C32.7257 69.7016 26.9289 73.2973 20.6429 72.2977" stroke="#B68E6E" stroke-linecap="round" stroke-linejoin="round"/>
<path d="M32.4017 58.2321C32.6618 58.6748 32.8866 59.1373 33.0739 59.6153" stroke="#B68E6E" stroke-linecap="round" stroke-linejoin="round"/>
<path d="M10.8307 60.6393C11.6948 55.2006 17.494 51.6048 23.7777 52.6069C26.6297 53.0299 29.2473 54.4269 31.1861 56.5607" stroke="#B68E6E" stroke-linecap="round" stroke-linejoin="round"/>
<path d="M17.3426 58.3568C19.0438 56.3207 21.5493 57.56 22.658 59.494C24.2683 57.9605 27.0238 57.4745 28.0759 59.9119C29.8523 64.0169 24.5628 66.8184 22.103 67.8569C21.8242 67.9769 21.5955 68.0775 21.4046 68.152C21.2407 68.026 21.0484 67.8648 20.8158 67.6715C18.7533 65.9765 14.4745 61.7914 17.3426 58.3568Z" stroke="#B68E6E" stroke-linecap="round" stroke-linejoin="round"/>
<path d="M96.217 55.7789L99.9315 57.1909L97.3323 53.6866C98.9837 52.0706 100.008 49.9212 100.223 47.6207" stroke="#B68E6E" stroke-linecap="round" stroke-linejoin="round"/>
<path d="M91.5264 56.9479C92.8231 56.6241 94.0615 56.1003 95.197 55.3953" stroke="#B68E6E" stroke-linecap="round" stroke-linejoin="round"/>
<path d="M77.3504 48.9417C78.1158 54.4004 83.8453 58.1082 90.1477 57.2144" stroke="#B68E6E" stroke-linecap="round" stroke-linejoin="round"/>
<path d="M78.652 42.9352C78.388 43.3731 78.1586 43.8311 77.966 44.3047" stroke="#B68E6E" stroke-linecap="round" stroke-linejoin="round"/>
<path d="M100.165 45.7424C99.3992 40.2886 93.6699 36.5856 87.3672 37.4697C84.5085 37.8409 81.8661 39.1892 79.888 41.2861" stroke="#B68E6E" stroke-linecap="round" stroke-linejoin="round"/>
<path d="M85.9545 42.8336C83.1973 44.4221 82.2499 47.9449 83.8384 50.7021C85.4269 53.4592 88.9497 54.4066 91.7069 52.8182C94.464 51.2297 95.4114 47.7069 93.823 44.9497C92.2345 42.1926 88.7117 41.2451 85.9545 42.8336Z" stroke="#B68E6E" stroke-linecap="round" stroke-linejoin="round"/>
<path d="M86.4525 48.869L88.2262 50.4412L90.9451 45.4034" stroke="#B68E6E" stroke-linecap="round" stroke-linejoin="round"/>
<path d="M36.8877 31.9957C36.824 32.0201 36.7655 32.0595 36.716 32.1113C36.0231 32.9462 35.2537 36.5097 34.6994 39.5709C34.2381 42.1062 33.9258 44.2878 33.9258 44.2878C33.9258 44.2878 46.164 45.9669 47.4505 45.9669C48.737 45.9669 69.5649 48.6744 69.5649 48.6744L69.811 42.1841L70.1378 33.5735C70.1378 33.5735 69.5814 33.5216 68.6093 33.4344C62.4168 32.866 39.3303 30.9132 36.8877 31.9957Z" fill="#5C715E"/>
<mask id="mask0_4_812" style="mask-type:luminance" maskUnits="userSpaceOnUse" x="34" y="31" width="37" height="18">
<path d="M37.1075 31.7532C37.0431 31.7783 36.9839 31.8188 36.9338 31.8722C36.2325 32.7317 35.4538 36.4003 34.8927 39.5518C34.4259 42.1618 34.1098 44.4077 34.1098 44.4077C34.1098 44.4077 46.4962 46.1364 47.7983 46.1364C49.1004 46.1364 70.1805 48.9237 70.1805 48.9237L70.4296 42.242L70.7603 33.3775C70.7603 33.3775 70.1972 33.3241 69.2134 33.2343C62.9458 32.6491 39.5798 30.6388 37.1075 31.7532Z" fill="white"/>
</mask>
<g mask="url(#mask0_4_812)">
<path opacity="0.2" d="M37.0158 31.7289L35.6974 38.9542L35.1978 41.6828C35.8459 42.4229 35.858 42.9875 35.858 42.9875L37.674 43.2124L40.646 43.5656L66.7933 46.6744C67.2087 45.9996 68.1178 45.6666 68.1178 45.6666L68.2522 41.5051L68.487 34.2955L67.8007 33.1056C61.7846 32.5589 39.3858 30.6964 37.0158 31.7289Z" fill="black" fill-opacity="0.7"/>
<path d="M37.0158 31.7289L35.6974 38.9542L35.1978 41.6828C35.8459 42.4229 35.858 42.9875 35.858 42.9875L37.674 43.2124L40.646 43.5656L66.7933 46.6744C67.2087 45.9996 68.1178 45.6666 68.1178 45.6666L68.2522 41.5051L68.487 34.2955L67.8007 33.1056C61.7846 32.5589 39.3858 30.6964 37.0158 31.7289Z" stroke="#263238" stroke-linecap="round" stroke-linejoin="round"/>
<path d="M44.7136 42.6051L44.7176 40.1937L44.0453 40.1914L43.8326 40.8617L43.6821 42.4071L44.7136 42.6051Z" fill="#92E3A9" stroke="#263238" stroke-linecap="round" stroke-linejoin="round"/>
<path d="M43.3289 42.4566L43.3831 40.684L43.1905 40.2296L42.2975 40.2521L42.2774 42.3217L43.3289 42.4566Z" fill="#92E3A9" stroke="#263238" stroke-linecap="round" stroke-linejoin="round"/>
<path d="M41.9022 42.1732L42.0326 40.1487L41.3563 40.1712L41.0473 41.1497L41.0995 42.1844L41.9022 42.1732Z" fill="#92E3A9" stroke="#263238" stroke-linecap="round" stroke-linejoin="round"/>
<path d="M40.7623 42.0517L40.6881 40.4163L40.3149 40.2679L39.9035 40.5063L39.8192 41.9685L40.4553 42.2204L40.7623 42.0517Z" fill="#92E3A9" stroke="#263238" stroke-linecap="round" stroke-linejoin="round"/>
<path d="M39.456 40.1667L38.872 39.9417C38.81 39.9058 38.7412 39.8871 38.6714 39.8871C38.6015 39.8871 38.5327 39.9058 38.4707 39.9417C38.428 39.9836 38.3957 40.037 38.3767 40.0968C38.3577 40.1567 38.3528 40.221 38.3623 40.2836C38.3724 40.4096 38.4105 40.5333 38.4165 40.6593C38.4306 41.0395 38.1516 41.3881 38.2158 41.7615C38.577 41.9078 39.1068 42.2767 39.2694 41.7773C39.2954 41.6851 39.3235 40.1127 39.456 40.1667Z" fill="#92E3A9" stroke="#263238" stroke-linecap="round" stroke-linejoin="round"/>
<path d="M37.8125 40.1734C37.6736 40.1377 37.5329 40.1122 37.3911 40.0969C37.3014 40.0741 37.2081 40.0774 37.1199 40.1066C37.0317 40.1357 36.9517 40.1897 36.8874 40.2634C36.8404 40.3593 36.8149 40.4666 36.8132 40.5761L36.7088 41.8763C36.9278 41.8952 37.1476 41.899 37.367 41.8875C37.6279 41.811 37.6058 41.865 37.7122 41.5883C37.8787 41.1497 37.6138 40.6233 37.8125 40.1734Z" fill="#92E3A9" stroke="#263238" stroke-linecap="round" stroke-linejoin="round"/>
<path d="M66.1993 44.9018C66.1993 44.9018 61.9712 44.4114 61.1344 44.3889" stroke="#263238" stroke-linecap="round" stroke-linejoin="round"/>
<path d="M66.1532 43.8446L63.8234 43.6151" stroke="#263238" stroke-linecap="round" stroke-linejoin="round"/>
<path d="M67.0341 40.1802L64.303 39.8832L64.2669 39.4671L67.008 39.602L67.0341 40.1802Z" fill="#92E3A9" stroke="#263238" stroke-linecap="round" stroke-linejoin="round"/>
<path opacity="0.2" d="M37.0158 31.7289C36.954 31.7522 36.8973 31.7897 36.8493 31.8391C36.177 32.6354 35.4305 36.0344 34.8927 38.9542H36.6988L37.67 43.2035L37.8165 43.8446L40.642 43.5566L51.438 42.4566L68.2442 41.4961L68.9586 41.4556L69.2756 33.2338C69.2756 33.2338 68.7358 33.1843 67.7927 33.1011C61.7846 32.5589 39.3858 30.6964 37.0158 31.7289Z" fill="black" fill-opacity="0.7"/>
</g>
<path d="M36.8877 31.9957C36.824 32.0201 36.7655 32.0595 36.716 32.1113C36.0231 32.9462 35.2537 36.5097 34.6994 39.5709C34.2381 42.1062 33.9258 44.2878 33.9258 44.2878C33.9258 44.2878 46.164 45.9669 47.4505 45.9669C48.737 45.9669 69.5649 48.6744 69.5649 48.6744L69.811 42.1841L70.1378 33.5735C70.1378 33.5735 69.5814 33.5216 68.6093 33.4344C62.4168 32.866 39.3303 30.9132 36.8877 31.9957Z" stroke="#263238" stroke-linecap="round" stroke-linejoin="round"/>
<path d="M9 27.0503C9.4417 26.9944 15.7783 27.8005 16.467 27.8151C18.351 27.8539 20.8233 28.473 20.8233 28.473C22.7282 29.3374 27.118 30.0099 29.9336 32.3165C32.7491 34.623 36.0608 34.6206 38.8722 35.0042C41.6836 35.3878 41.4408 35.2932 43.9361 35.196C45.8104 35.126 47.6867 35.2226 49.5483 35.485C51.2063 35.6768 54.1223 36.0604 55.4809 35.485C56.8395 34.9095 57.1556 33.4042 55.7949 31.7556C54.4342 30.107 48.8554 29.4345 48.1667 29.4345C47.478 29.4345 45.326 29.4345 44.4971 28.8567C44.4971 28.8567 45.9373 25.591 46.335 25.591C46.7328 25.591 50.2475 25.6882 50.4359 25.2074L55.7949 27.1279L56.9107 23.486C56.3805 22.8005 55.767 22.2083 55.0895 21.7282C54.5285 21.3171 53.933 20.973 53.3122 20.7012C49.7975 19.1643 47.3461 16.695 46.335 16.1852C45.3239 15.6753 37.2938 16.1852 35.8013 16.1852C34.3087 16.1852 27.4278 17.302 26.2702 17.2729C25.4329 17.251 22.3179 16.5955 19.9294 15.9424C19.0083 15.6996 12.3347 14.2258 11.8051 14L9 27.0503Z" fill="white"/>
<path opacity="0.4" d="M50.7897 24.1756C50.3396 24.1998 46.7516 23.5759 46.7516 23.5759C45.8578 23.1437 42.8098 25.5036 42.8098 25.5036C42.5628 26.0135 41.0305 26.232 41.0305 26.232C41.3361 27.8296 44.5075 31.4886 44.5075 31.4886C44.5075 31.4886 43.2076 31.9207 39.9901 32.4063C36.7726 32.8919 29.1297 29.8133 23.8524 28.5022C18.575 27.1911 16.4733 27.8151 16.4733 27.8151C18.3573 27.8539 20.8296 28.473 20.8296 28.473C22.7345 29.3374 27.1243 30.0099 29.9399 32.3165C32.7554 34.623 36.0608 34.6206 38.8722 35.0042C41.6836 35.3878 41.4408 35.2932 43.9361 35.196C45.8104 35.126 47.6867 35.2226 49.5483 35.485C51.2063 35.6768 54.1223 36.0604 55.4809 35.485C56.8395 34.9095 57.1556 33.4042 55.7949 31.7556C54.4342 30.107 48.8554 29.4345 48.1667 29.4345C47.478 29.4345 45.326 29.4345 44.4971 28.8567C44.4971 28.8567 45.9373 25.591 46.335 25.591C46.7328 25.591 50.2475 25.6882 50.4359 25.2074L55.7949 27.1279L56.9107 23.486C56.3805 22.8005 55.767 22.2083 55.0895 21.7282C53.0589 22.9057 51.0702 24.1513 50.7897 24.1756Z" fill="#92E3A9"/>
<path opacity="0.4" d="M25.7155 18.0523C26.9715 17.892 29.9566 17.4137 31.8197 17.1102C30.3648 17.4817 29.6279 18.0814 29.6279 18.0814C29.6279 18.0814 40.3041 17.0471 40.9551 16.9451C41.6061 16.8431 44.5327 15.7991 46.3455 16.1827C45.3365 15.6729 37.3043 16.1827 35.8117 16.1827C34.3192 16.1827 27.4383 17.2996 26.2807 17.2705C25.4433 17.2486 20.1074 16.207 17.7188 15.5539C19.4773 16.9572 24.4532 18.2125 25.7155 18.0523Z" fill="#92E3A9"/>
<path d="M11.8156 14.0049C13.7205 14.7721 25.1293 17.2365 26.2807 17.2656C27.432 17.2947 34.3213 16.1779 35.8117 16.1779C37.3022 16.1779 45.3365 15.668 46.3455 16.1779C47.3545 16.6878 49.8079 19.157 53.3227 20.6939C54.697 21.2748 55.9311 22.2298 56.9212 23.4787L55.8054 27.1207L50.4464 25.2002C50.258 25.6858 46.7432 25.5838 46.3455 25.5838C45.9478 25.5838 44.5075 28.8494 44.5075 28.8494C45.3449 29.4272 47.4885 29.4272 48.1772 29.4272C48.8659 29.4272 54.4468 30.0998 55.8054 31.7484C57.164 33.3969 56.8521 34.9047 55.4914 35.4777C54.1307 36.0507 51.2168 35.6695 49.5588 35.4777C47.6951 35.2149 45.8167 35.1183 43.9402 35.1888C41.445 35.2859 41.692 35.383 38.8764 34.997C36.0608 34.6109 32.7491 34.6133 29.9336 32.3092C27.118 30.0051 22.7282 29.3301 20.8233 28.4658C20.8233 28.4658 10.6558 26.8342 9 27.043" stroke="#263238" stroke-linecap="round" stroke-linejoin="round"/>
<path d="M44.5075 28.8566C44.5075 28.8566 42.1902 28.2812 41.0305 26.9847" stroke="#263238" stroke-linecap="round" stroke-linejoin="round"/>
<path d="M43.4504 28.507C43.4504 28.507 42.8098 26.0791 42.7701 25.0642" stroke="#263238" stroke-linecap="round" stroke-linejoin="round"/>
<path d="M46.3455 25.5911C46.3455 25.5911 47.0342 23.8624 46.6197 22.7576" stroke="#263238" stroke-linecap="round" stroke-linejoin="round"/>
<path d="M50.4464 25.2074C50.4464 25.2074 50.5532 23.8623 51.133 23.5758" stroke="#263238" stroke-linecap="round" stroke-linejoin="round"/>
<path d="M29.3432 31.8722C29.3432 31.8722 26.5779 29.2888 25.1712 28.5216" stroke="#263238" stroke-linecap="round" stroke-linejoin="round"/>
<path d="M41.445 16.8504C39.249 17.2826 33.2453 17.8604 32.1693 18.0523" stroke="#263238" stroke-linecap="round" stroke-linejoin="round"/>
<path d="M45.5856 16.0249C43.5969 15.9521 42.5628 16.5105 42.5628 16.5105" stroke="#263238" stroke-linecap="round" stroke-linejoin="round"/>
<path d="M71 35.984L67.198 17.6744C67.198 17.6744 51.8227 24.1097 49.9158 25.4158L36.5124 27.5984C36.5124 27.5984 36.9174 39.2954 38.1972 44.6744C38.1972 44.6744 52.155 41.2732 54.0167 41.0909C55.8784 40.9086 71 35.984 71 35.984Z" fill="#5C715E"/>
<mask id="mask1_4_812" style="mask-type:luminance" maskUnits="userSpaceOnUse" x="37" y="18" width="34" height="27">
<path d="M70.1378 35.8832L66.5069 18.0814C66.5069 18.0814 51.8235 24.3382 50.0024 25.6081L37.2021 27.7301C37.2021 27.7301 37.5889 39.1026 38.8111 44.3324C38.8111 44.3324 52.1408 41.0256 53.9187 40.8483C55.6967 40.6711 70.1378 35.8832 70.1378 35.8832Z" fill="white"/>
</mask>
<g mask="url(#mask1_4_812)">
<path opacity="0.2" d="M54.7073 39.712L67.6784 35.7885C67.6784 35.7885 68.3261 34.101 68.9175 33.4479L66.1126 20.6939C66.1126 20.6939 65.1457 20.655 64.5262 19.9242L50.1845 26.3607L39.6128 27.9219C39.6128 27.9219 39.4851 29.9978 38.2986 30.1969C38.2986 30.1969 38.0169 36.9272 38.9369 41.4407C38.9369 41.4407 40.2192 41.9725 41.0302 42.7858L54.7073 39.712Z" fill="black" fill-opacity="0.7"/>
<path d="M54.7073 39.712L67.6784 35.7885C67.6784 35.7885 68.3261 34.101 68.9175 33.4479L66.1126 20.6939C66.1126 20.6939 65.1457 20.655 64.5262 19.9242L50.1845 26.3607L39.6128 27.9219C39.6128 27.9219 39.4851 29.9978 38.2986 30.1969C38.2986 30.1969 38.0169 36.9272 38.9369 41.4407C38.9369 41.4407 40.2192 41.9725 41.0302 42.7858L54.7073 39.712Z" stroke="#263238" stroke-linecap="round" stroke-linejoin="round"/>
<path d="M54.0333 36.4464C54.0333 36.4464 57.4126 35.2883 56.8062 31.2093C56.1998 27.1304 52.0357 29.4345 52.0357 29.4345C52.0357 29.4345 48.6751 29.4102 49.1388 32.7195C49.5406 35.5894 50.759 37.119 54.0333 36.4464Z" fill="#5C715E" stroke="#263238" stroke-linecap="round" stroke-linejoin="round"/>
<path d="M66.4449 34.237C66.4449 34.237 62.5831 35.4704 61.8396 35.7885" stroke="#263238" stroke-linecap="round" stroke-linejoin="round"/>
<path d="M66.1107 33.1808L63.993 33.8995" stroke="#263238" stroke-linecap="round" stroke-linejoin="round"/>
<path d="M64.6257 24.1756L63.9573 21.7209L63.3622 21.9904V22.7576L63.6588 24.3917L64.6257 24.1756Z" fill="#92E3A9" stroke="#263238" stroke-linecap="round" stroke-linejoin="round"/>
<path d="M63.3622 24.5835L62.9172 22.7576L62.6206 22.374L61.8396 22.7576L62.3972 24.8724L63.3622 24.5835Z" fill="#92E3A9" stroke="#263238" stroke-linecap="round" stroke-linejoin="round"/>
<path d="M62.0255 24.8724L61.5749 22.7576L60.9854 23.0563V24.1756L61.3195 25.2074L62.0255 24.8724Z" fill="#92E3A9" stroke="#263238" stroke-linecap="round" stroke-linejoin="round"/>
<path d="M60.9854 25.2074L60.4653 23.5759H60.0955L59.797 23.9838L60.1312 25.5037H60.7638L60.9854 25.2074Z" fill="#92E3A9" stroke="#263238" stroke-linecap="round" stroke-linejoin="round"/>
<path d="M59.3088 23.8162H58.7306C58.6669 23.8036 58.6018 23.8104 58.5405 23.8361C58.4792 23.8619 58.4234 23.9058 58.3776 23.9643C58.3522 24.0247 58.3388 24.0923 58.3388 24.161C58.3388 24.2297 58.3522 24.2973 58.3776 24.3577C58.4227 24.4815 58.4903 24.6005 58.5297 24.717C58.648 25.0982 58.4997 25.5668 58.6574 25.931C59.016 25.931 59.5848 26.0937 59.5961 25.5207C59.5904 25.426 59.1774 23.8162 59.3088 23.8162Z" fill="#92E3A9" stroke="#263238" stroke-linecap="round" stroke-linejoin="round"/>
<path d="M57.8613 24.4888C57.729 24.5071 57.5978 24.5379 57.469 24.581C57.3019 24.6344 57.116 24.7388 57.0709 24.9549C57.056 25.0713 57.0637 25.1906 57.0935 25.3021L57.3713 26.6666C57.5689 26.6006 57.7632 26.5196 57.9533 26.4238C58.1617 26.2393 58.158 26.3024 58.1749 25.9795C58.1918 25.4551 57.8106 25.0278 57.8613 24.4888Z" fill="#92E3A9" stroke="#263238" stroke-linecap="round" stroke-linejoin="round"/>
<path d="M65.8498 29.097L63.3622 29.9152L63.2139 29.5073L65.6658 28.5216L65.8498 29.097Z" fill="#92E3A9" stroke="#263238" stroke-linecap="round" stroke-linejoin="round"/>
<path d="M49.1445 39.3503L48.6394 36.8301L48.0311 37.034L47.9786 37.7988L48.1682 39.4595L49.1445 39.3503Z" fill="#92E3A9" stroke="#263238" stroke-linecap="round" stroke-linejoin="round"/>
<path d="M47.8584 39.6174L47.5355 37.7503L47.2651 37.3327L46.4616 37.6289L46.8784 39.797L47.8584 39.6174Z" fill="#92E3A9" stroke="#263238" stroke-linecap="round" stroke-linejoin="round"/>
<path d="M46.5067 39.7557L46.1988 37.5997L45.5924 37.8328L45.5173 38.9472L45.782 40.0131L46.5067 39.7557Z" fill="#92E3A9" stroke="#263238" stroke-linecap="round" stroke-linejoin="round"/>
<path d="M45.4497 39.9767L45.0385 38.2917L44.6687 38.2504L44.3457 38.6243L44.5785 40.1758L45.2075 40.2462L45.4497 39.9767Z" fill="#92E3A9" stroke="#263238" stroke-linecap="round" stroke-linejoin="round"/>
<path d="M43.8708 38.4058L43.2944 38.3403C43.2316 38.3203 43.1661 38.3199 43.1031 38.3388C43.0402 38.3578 42.9815 38.3957 42.932 38.4495C42.9027 38.5067 42.8851 38.5725 42.8809 38.6409C42.8766 38.7092 42.8858 38.7779 42.9076 38.8404C42.9433 38.9691 43.0034 39.0832 43.0334 39.2167C43.1273 39.6076 42.9489 40.0592 43.0822 40.4307C43.439 40.4744 43.9947 40.6954 44.0379 40.1272C44.0416 40.0398 43.7393 38.3912 43.8708 38.4058Z" fill="#92E3A9" stroke="#263238" stroke-linecap="round" stroke-linejoin="round"/>
<path d="M42.3838 38.9132C42.2473 38.9167 42.1112 38.9329 41.9764 38.9618C41.8075 38.9982 41.6141 39.0808 41.5559 39.2896C41.5333 39.4043 41.5333 39.5245 41.5559 39.6392L41.7436 41.028C41.9454 40.9813 42.1447 40.9188 42.3407 40.841C42.5603 40.6808 42.5528 40.7439 42.5904 40.4234C42.6486 39.9136 42.2975 39.4474 42.3838 38.9132Z" fill="#92E3A9" stroke="#263238" stroke-linecap="round" stroke-linejoin="round"/>
<path d="M40.5609 28.8567C40.5609 28.8567 45.5436 28.2788 46.0448 28.2788" stroke="#263238" stroke-linecap="round" stroke-linejoin="round"/>
<path d="M40.7843 30.0099C40.7843 30.0099 43.3751 29.7671 43.8257 29.7234" stroke="#263238" stroke-linecap="round" stroke-linejoin="round"/>
<path d="M42.6561 34.5138L39.7066 35.2932V34.5138L42.6561 33.9481V34.5138Z" fill="#92E3A9" stroke="#263238" stroke-linecap="round" stroke-linejoin="round"/>
<path opacity="0.2" d="M50.0757 25.5668C50.3479 27.2518 50.7478 28.7547 51.3242 29.8667C51.3242 29.8667 49.5331 29.0606 46.4804 26.2029L37.2022 27.7398C37.2022 27.7398 37.4537 35.1621 38.1953 40.7706C41.9502 39.0468 49.0656 35.9147 50.4756 36.2862C52.4112 36.7888 54.696 35.0139 54.696 35.0139C55.477 29.4029 58.7569 23.9619 61.5298 20.2277C57.1836 22.1288 51.3636 24.7243 50.0757 25.5668Z" fill="black" fill-opacity="0.7"/>
</g>
<path d="M71 35.984L67.198 17.6744C67.198 17.6744 51.8227 24.1097 49.9158 25.4158L36.5124 27.5984C36.5124 27.5984 36.9174 39.2954 38.1972 44.6744C38.1972 44.6744 52.155 41.2732 54.0167 41.0909C55.8784 40.9086 71 35.984 71 35.984Z" stroke="#263238" stroke-linecap="round" stroke-linejoin="round"/>
<path d="M40.8211 26.0135L25.1712 28.5216C26.1948 29.08 27.9407 30.6023 28.8136 31.389C29.1402 31.6804 29.3433 31.8746 29.3433 31.8746L29.9336 32.3189C32.7491 34.623 36.0608 34.623 38.8764 35.0067C41.692 35.3903 41.4449 35.2956 43.9402 35.1985C45.8132 35.1279 47.688 35.2236 49.5483 35.485C51.2063 35.6768 54.1223 36.0604 55.4809 35.485C56.1466 35.2033 56.5611 34.6959 56.649 34.0598C56.7369 33.4236 56.4857 32.603 55.7949 31.7556C54.4363 30.107 48.8554 29.4345 48.1667 29.4345C47.478 29.4345 45.326 29.4345 44.4971 28.8567C44.5075 28.8567 41.9808 27.3076 40.8211 26.0135Z" fill="white"/>
<path opacity="0.4" d="M31.0493 32.5083C30.4716 31.9839 29.6384 31.6269 28.8136 31.389C29.1402 31.6804 29.3433 31.8746 29.3433 31.8746L29.9336 32.3189C32.7491 34.623 36.0608 34.623 38.8764 35.0067C41.692 35.3903 41.445 35.2956 43.9402 35.1985C45.8132 35.1279 47.688 35.2236 49.5483 35.485C51.2063 35.6768 54.1223 36.0604 55.4809 35.485C56.1466 35.2033 56.5611 34.6959 56.649 34.0598C56.3518 32.8458 55.2862 31.6318 53.4629 31.2093C50.4024 30.481 52.8747 33.766 50.281 34.5259C47.6873 35.2859 46.9882 34.1812 46.335 33.7271C45.6819 33.2731 44.2417 33.8534 42.3074 34.5259C40.3732 35.1985 32.6382 33.9481 31.0493 32.5083Z" fill="#92E3A9"/>
<path d="M40.8211 26.0135C41.9809 27.3101 44.5075 28.8567 44.5075 28.8567C45.3449 29.4345 47.4885 29.4345 48.1772 29.4345C48.8659 29.4345 54.4468 30.1071 55.8054 31.7556C57.164 33.4042 56.8521 34.912 55.4914 35.485C54.1307 36.058 51.2167 35.6768 49.5588 35.485C47.6951 35.2222 45.8167 35.1256 43.9402 35.196C41.445 35.2932 41.692 35.3903 38.8764 35.0042C36.0608 34.6182 32.7491 34.6206 29.9336 32.3165L29.3433 31.8722C29.3433 31.8722 26.5779 29.2888 25.1712 28.5216" stroke="#263238" stroke-linecap="round" stroke-linejoin="round"/>
<path d="M47.4445 34.5138C47.4445 34.5138 48.4263 32.3116 48.3426 31.2093" stroke="#263238" stroke-linecap="round" stroke-linejoin="round"/>
<path d="M67.4065 62.3701C67.4065 62.3701 54.6995 64.866 53.0161 67.4688C52.0486 68.9717 51.6036 71.3147 51.6616 73.393C51.7042 74.8983 52.0061 76.2677 52.5537 77.0738C53.8559 78.9943 54.5447 81.6869 55.3865 83.0271C56.2282 84.3674 59.2138 84.3722 61.7409 85.2366C64.2679 86.1009 64.3434 87.3513 66.8685 87.6378C69.3937 87.9243 77.1238 89.08 79.2697 91.1681C81.4156 93.2561 83.0971 93.3047 85.2797 94.169C87.4624 95.0334 95.359 101.356 95.359 101.356L97.8744 85.9431C97.8744 85.9431 92.8764 84.4281 88.7994 82.8062C86.8645 82.0365 85.1346 81.2426 84.2484 80.5773C82.5342 79.2999 80.7427 78.1934 78.8905 77.268C77.4354 75.5247 74.2117 74.5706 71.3886 74.2816L69.5543 70.1541C68.8635 66.9808 67.4065 62.3701 67.4065 62.3701Z" fill="white"/>
<path opacity="0.4" d="M67.4065 62.3701C67.4065 62.3701 54.6995 64.866 53.0161 67.4688C52.0486 68.9717 51.6036 71.3147 51.6616 73.393C52.6291 78.3218 54.8195 79.6474 55.3497 80.3151C56.056 81.2037 60.3593 82.3716 62.8632 81.7306C65.367 81.0896 66.2939 81.5509 67.5168 82.0802C70.2257 83.2529 71.6847 79.6766 72.7102 79.3075C73.7357 78.9385 79.471 79.0647 81.3363 80.6744C82.3289 81.5291 87.4449 83.7312 88.7956 82.8038C86.8606 82.0341 85.1307 81.2402 84.2445 80.5749C82.5303 79.2975 80.7389 78.191 78.8866 77.2656C77.4315 75.5223 74.2079 74.5681 71.3847 74.2792L69.5504 70.1517C68.8635 66.9808 67.4065 62.3701 67.4065 62.3701Z" fill="#92E3A9"/>
<path d="M68.3004 81.1916C68.3004 81.1916 67.4858 82.0608 67.4858 82.828" stroke="#263238" stroke-linecap="round" stroke-linejoin="round"/>
<path d="M65.547 79.3002C65.547 79.3002 63.9642 80.235 63.612 81.7282" stroke="#263238" stroke-linecap="round" stroke-linejoin="round"/>
<path d="M56.2707 80.9609C56.2707 80.9609 56.9983 78.8462 58.2231 78.5111" stroke="#263238" stroke-linecap="round" stroke-linejoin="round"/>
<path d="M69.5523 70.1493C69.5523 70.1493 69.0163 70.6786 68.5848 70.6786" stroke="#263238" stroke-linecap="round" stroke-linejoin="round"/>
<path d="M97.8744 85.9334C97.8744 85.9334 87.0057 82.6362 84.2406 80.5676C82.5265 79.2902 80.735 78.1837 78.8827 77.2583C77.4276 75.515 74.202 74.5608 71.3789 74.2719L69.5446 70.1444C68.8557 66.9759 67.4006 62.3749 67.4006 62.3749C67.4006 62.3749 54.6937 64.8709 53.0103 67.4736C51.3269 70.0764 51.2572 75.1338 52.5575 77.0762C53.8578 79.0186 54.5486 81.6893 55.3903 83.0296C56.232 84.3698 59.2177 84.3746 61.7447 85.239C64.2718 86.1033 64.3473 87.3537 66.8724 87.6402C69.3975 87.9267 77.1277 89.0824 79.2736 91.1705C81.4195 93.2585 83.1009 93.3071 85.2836 94.1714C87.4662 95.0358 95.359 101.356 95.359 101.356" stroke="#263238" stroke-linecap="round" stroke-linejoin="round"/>
<path d="M36.3658 69.9066L68.3698 80.2793L72.3346 57.1123L74.0377 59.8461L70.0729 83.013L38.0689 72.6404L36.3658 69.9066Z" fill="#263238"/>
<path opacity="0.5" d="M36.3658 69.9066L68.3698 80.2793L72.3346 57.1123L74.0377 59.8461L70.0729 83.013L38.0689 72.6404L36.3658 69.9066Z" fill="white" fill-opacity="0.4"/>
<path d="M36.366 69.9033L40.3311 46.7372L72.3371 57.1112L68.372 80.2773L36.366 69.9033Z" fill="#5C715E"/>
<path opacity="0.6" d="M36.366 69.9033L40.3311 46.7372L72.3371 57.1112L68.372 80.2773L36.366 69.9033Z" fill="white" fill-opacity="0.4"/>
<path d="M40.7472 72.4181C40.7515 72.3922 40.7507 72.3648 40.7448 72.3377C40.739 72.3106 40.7281 72.2842 40.7128 72.2601C40.6976 72.2359 40.6783 72.2145 40.6561 72.1971C40.6338 72.1797 40.6091 72.1665 40.5832 72.1585L39.7387 71.885C39.7131 71.8764 39.6867 71.873 39.6612 71.875C39.6357 71.877 39.6115 71.8843 39.5901 71.8965C39.5687 71.9088 39.5504 71.9257 39.5364 71.9463C39.5223 71.9669 39.5128 71.9908 39.5083 72.0167C39.4996 72.0685 39.5117 72.1249 39.5419 72.1733C39.5721 72.2217 39.618 72.2584 39.6696 72.2752L40.5167 72.5497C40.5424 72.5583 40.5687 72.5617 40.5942 72.5597C40.6197 72.5578 40.6439 72.5505 40.6653 72.5382C40.6868 72.526 40.705 72.5091 40.7191 72.4884C40.7331 72.4678 40.7426 72.4439 40.7472 72.4181Z" fill="#263238"/>
<path d="M56.6831 77.5825C56.6878 77.5568 56.6873 77.5297 56.6817 77.5027C56.676 77.4757 56.6654 77.4494 56.6504 77.4253C56.6353 77.4012 56.6162 77.3799 56.5942 77.3625C56.5721 77.3451 56.5475 77.332 56.5218 77.324L41.9044 72.5858C41.8788 72.5772 41.8525 72.5738 41.8272 72.5759C41.8018 72.578 41.7777 72.5854 41.7565 72.5978C41.7353 72.6101 41.7173 72.6272 41.7035 72.6479C41.6898 72.6686 41.6806 72.6926 41.6765 72.7185C41.6718 72.7443 41.6723 72.7715 41.6778 72.7986C41.6834 72.8257 41.6939 72.8521 41.7089 72.8764C41.7238 72.9007 41.7428 72.9223 41.7648 72.94C41.7868 72.9577 41.8114 72.9711 41.8371 72.9795L56.4566 77.7101C56.5073 77.7269 56.5596 77.723 56.602 77.6991C56.6444 77.6752 56.6736 77.6333 56.6831 77.5825Z" fill="#263238"/>
<path d="M64.4493 80.1016C64.4575 80.0491 64.445 79.9923 64.4145 79.9434C64.3841 79.8945 64.338 79.8572 64.2861 79.8395L58.1014 77.828C58.0758 77.8195 58.0496 77.8161 58.0242 77.8182C57.9988 77.8202 57.9748 77.8277 57.9536 77.84C57.9323 77.8524 57.9143 77.8694 57.9006 77.8902C57.8868 77.9109 57.8776 77.9349 57.8735 77.9607C57.8649 78.0126 57.877 78.0689 57.9072 78.1174C57.9374 78.1658 57.9833 78.2024 58.0349 78.2192L64.2182 80.2359C64.2704 80.2527 64.3241 80.248 64.3674 80.2228C64.4107 80.1977 64.4402 80.1541 64.4493 80.1016Z" fill="#263238"/>
<path d="M67.0197 80.9346C67.0244 80.9089 67.024 80.8816 67.0184 80.8545C67.0128 80.8274 67.0023 80.801 66.9874 80.7767C66.9724 80.7525 66.9534 80.7309 66.9314 80.7132C66.9094 80.6955 66.8848 80.682 66.8591 80.6736L65.7206 80.3056C65.6949 80.297 65.6685 80.2936 65.643 80.2956C65.6175 80.2976 65.5933 80.3049 65.5719 80.3171C65.5505 80.3294 65.5322 80.3463 65.5182 80.3669C65.5041 80.3875 65.4946 80.4114 65.4901 80.4373C65.4814 80.4891 65.4935 80.5455 65.5237 80.5939C65.554 80.6423 65.5999 80.6789 65.6514 80.6958L66.7918 81.0674C66.8434 81.0839 66.8964 81.0792 66.9391 81.0543C66.9818 81.0295 67.0108 80.9864 67.0197 80.9346Z" fill="#263238"/>
<path d="M72.1254 65.8854L72.8209 61.8287C72.829 61.7763 72.8163 61.7198 72.7857 61.6712C72.755 61.6227 72.7088 61.586 72.657 61.5691C72.6054 61.5526 72.5524 61.5573 72.5097 61.5822C72.467 61.607 72.438 61.6501 72.4291 61.7019L71.7336 65.7585C71.7254 65.8111 71.7379 65.8678 71.7684 65.9168C71.7988 65.9657 71.8449 66.003 71.8968 66.0207C71.9488 66.0366 72.0018 66.0314 72.0446 66.0061C72.0873 65.9808 72.1164 65.9374 72.1254 65.8854Z" fill="#263238"/>
<path d="M70.4225 75.8325L71.8221 67.6543C71.8268 67.6286 71.8263 67.6013 71.8208 67.5742C71.8152 67.5471 71.8047 67.5207 71.7897 67.4964C71.7748 67.4721 71.7558 67.4505 71.7338 67.4328C71.7118 67.4151 71.6872 67.4017 71.6615 67.3933C71.6357 67.385 71.6093 67.3819 71.5838 67.3842C71.5583 67.3866 71.5343 67.3942 71.513 67.4068C71.4918 67.4194 71.4737 67.4366 71.46 67.4575C71.4462 67.4784 71.437 67.5026 71.4329 67.5286L70.0333 75.7067C70.0286 75.7325 70.0291 75.7597 70.0346 75.7868C70.0402 75.8139 70.0507 75.8404 70.0656 75.8646C70.0806 75.8889 70.0996 75.9105 70.1216 75.9282C70.1436 75.9459 70.1682 75.9594 70.1939 75.9678C70.2197 75.9761 70.2461 75.9791 70.2716 75.9768C70.2971 75.9745 70.3211 75.9668 70.3424 75.9542C70.3636 75.9417 70.3817 75.9244 70.3954 75.9035C70.4092 75.8826 70.4184 75.8585 70.4225 75.8325Z" fill="#263238"/>
<path d="M70.0296 78.1227L70.2214 77.0113C70.2301 76.9594 70.218 76.9031 70.1877 76.8547C70.1575 76.8063 70.1116 76.7696 70.0601 76.7528C70.0344 76.7442 70.008 76.7408 69.9825 76.7428C69.957 76.7448 69.9328 76.7521 69.9114 76.7643C69.89 76.7766 69.8717 76.7935 69.8577 76.8141C69.8436 76.8347 69.8341 76.8586 69.8296 76.8845L69.6404 77.997C69.6357 78.0228 69.6361 78.05 69.6417 78.0771C69.6473 78.1042 69.6578 78.1306 69.6727 78.1549C69.6877 78.1792 69.7067 78.2008 69.7287 78.2185C69.7507 78.2362 69.7753 78.2496 69.801 78.258C69.8268 78.2663 69.8532 78.2694 69.8787 78.2671C69.9041 78.2648 69.9282 78.2571 69.9495 78.2445C69.9707 78.2319 69.9887 78.2147 70.0025 78.1938C70.0162 78.1729 70.0255 78.1487 70.0296 78.1227Z" fill="#263238"/>
<g opacity="0.4">
<path d="M40.7471 72.4181C40.7515 72.3921 40.7507 72.3648 40.7448 72.3377C40.7389 72.3106 40.7281 72.2842 40.7128 72.2601C40.6976 72.2359 40.6783 72.2145 40.656 72.1971C40.6338 72.1797 40.6091 72.1665 40.5832 72.1585L39.7387 71.885C39.713 71.8764 39.6867 71.873 39.6612 71.875C39.6356 71.877 39.6115 71.8843 39.5901 71.8965C39.5686 71.9087 39.5504 71.9257 39.5363 71.9463C39.5223 71.9669 39.5128 71.9908 39.5082 72.0167C39.4996 72.0685 39.5117 72.1248 39.5419 72.1733C39.5721 72.2217 39.618 72.2583 39.6696 72.2752L40.5167 72.5497C40.5423 72.5583 40.5687 72.5617 40.5942 72.5597C40.6197 72.5578 40.6439 72.5504 40.6653 72.5382C40.6867 72.526 40.705 72.5091 40.719 72.4884C40.7331 72.4678 40.7426 72.4439 40.7471 72.4181Z" fill="white" fill-opacity="0.4"/>
<path d="M56.6831 77.5825C56.6878 77.5568 56.6873 77.5297 56.6817 77.5027C56.676 77.4757 56.6654 77.4494 56.6504 77.4253C56.6353 77.4012 56.6162 77.3799 56.5942 77.3625C56.5721 77.3451 56.5475 77.332 56.5218 77.324L41.9044 72.5858C41.8788 72.5772 41.8525 72.5738 41.8272 72.5759C41.8018 72.578 41.7777 72.5854 41.7565 72.5978C41.7353 72.6101 41.7173 72.6272 41.7035 72.6479C41.6898 72.6686 41.6806 72.6926 41.6765 72.7185C41.6718 72.7443 41.6723 72.7715 41.6778 72.7986C41.6834 72.8257 41.6939 72.8521 41.7089 72.8764C41.7238 72.9007 41.7428 72.9223 41.7648 72.94C41.7868 72.9577 41.8114 72.9711 41.8371 72.9795L56.4566 77.7101C56.5073 77.7269 56.5596 77.723 56.602 77.6991C56.6444 77.6752 56.6736 77.6333 56.6831 77.5825Z" fill="white" fill-opacity="0.4"/>
<path d="M64.4493 80.1016C64.4575 80.0491 64.445 79.9923 64.4145 79.9434C64.3841 79.8945 64.338 79.8572 64.2861 79.8395L58.1014 77.828C58.0758 77.8195 58.0496 77.8161 58.0242 77.8182C57.9988 77.8202 57.9748 77.8277 57.9536 77.84C57.9323 77.8524 57.9143 77.8694 57.9006 77.8902C57.8868 77.9109 57.8776 77.9349 57.8735 77.9607C57.8649 78.0126 57.877 78.0689 57.9072 78.1174C57.9374 78.1658 57.9833 78.2024 58.0349 78.2192L64.2182 80.2359C64.2704 80.2527 64.3241 80.248 64.3674 80.2228C64.4107 80.1977 64.4402 80.1541 64.4493 80.1016Z" fill="white" fill-opacity="0.4"/>
<path d="M67.0197 80.9346C67.0244 80.9089 67.024 80.8816 67.0184 80.8545C67.0128 80.8274 67.0023 80.801 66.9874 80.7767C66.9724 80.7525 66.9534 80.7308 66.9314 80.7131C66.9094 80.6954 66.8848 80.682 66.8591 80.6736L65.7206 80.3056C65.6949 80.297 65.6685 80.2936 65.643 80.2956C65.6175 80.2976 65.5933 80.3049 65.5719 80.3171C65.5505 80.3293 65.5322 80.3463 65.5182 80.3669C65.5041 80.3875 65.4946 80.4114 65.4901 80.4373C65.4814 80.4891 65.4935 80.5454 65.5237 80.5939C65.554 80.6423 65.5999 80.6789 65.6514 80.6958L66.7918 81.0674C66.8434 81.0839 66.8964 81.0792 66.9391 81.0543C66.9818 81.0295 67.0108 80.9864 67.0197 80.9346Z" fill="white" fill-opacity="0.4"/>
<path d="M72.1254 65.8854L72.8209 61.8287C72.829 61.7763 72.8163 61.7198 72.7857 61.6712C72.755 61.6227 72.7088 61.586 72.657 61.5691C72.6054 61.5526 72.5524 61.5573 72.5097 61.5822C72.467 61.607 72.438 61.6501 72.4291 61.7018L71.7336 65.7585C71.7254 65.8111 71.7379 65.8678 71.7684 65.9168C71.7988 65.9657 71.8449 66.0029 71.8968 66.0207C71.9488 66.0366 72.0019 66.0314 72.0446 66.0061C72.0874 65.9808 72.1164 65.9374 72.1254 65.8854Z" fill="white" fill-opacity="0.4"/>
<path d="M70.4225 75.8325L71.8221 67.6543C71.8268 67.6286 71.8263 67.6013 71.8208 67.5742C71.8152 67.5471 71.8047 67.5207 71.7897 67.4964C71.7748 67.4721 71.7558 67.4505 71.7338 67.4328C71.7118 67.4151 71.6872 67.4017 71.6615 67.3933C71.6357 67.385 71.6093 67.3819 71.5838 67.3842C71.5583 67.3866 71.5343 67.3942 71.513 67.4068C71.4918 67.4194 71.4737 67.4366 71.46 67.4575C71.4462 67.4784 71.437 67.5026 71.4329 67.5286L70.0333 75.7067C70.0286 75.7325 70.0291 75.7597 70.0346 75.7868C70.0402 75.8139 70.0507 75.8404 70.0656 75.8646C70.0806 75.8889 70.0996 75.9105 70.1216 75.9282C70.1436 75.9459 70.1682 75.9594 70.1939 75.9678C70.2197 75.9761 70.2461 75.9791 70.2716 75.9768C70.2971 75.9745 70.3211 75.9668 70.3424 75.9542C70.3636 75.9417 70.3816 75.9244 70.3954 75.9035C70.4092 75.8826 70.4184 75.8585 70.4225 75.8325Z" fill="white" fill-opacity="0.4"/>
<path d="M70.0296 78.1227L70.2214 77.0113C70.2301 76.9594 70.218 76.9031 70.1877 76.8547C70.1575 76.8062 70.1116 76.7696 70.0601 76.7528C70.0344 76.7442 70.008 76.7408 69.9825 76.7428C69.957 76.7448 69.9328 76.7521 69.9114 76.7643C69.89 76.7765 69.8717 76.7935 69.8577 76.8141C69.8436 76.8347 69.8341 76.8586 69.8296 76.8845L69.6404 77.997C69.6357 78.0228 69.6361 78.05 69.6417 78.0771C69.6473 78.1042 69.6578 78.1306 69.6727 78.1549C69.6877 78.1792 69.7067 78.2008 69.7287 78.2185C69.7507 78.2362 69.7753 78.2496 69.801 78.258C69.8268 78.2663 69.8532 78.2694 69.8787 78.2671C69.9041 78.2647 69.9282 78.2571 69.9495 78.2445C69.9707 78.2319 69.9887 78.2147 70.0025 78.1938C70.0162 78.1729 70.0255 78.1487 70.0296 78.1227Z" fill="white" fill-opacity="0.4"/>
</g>
<path d="M53.0548 53.3115C53.3819 52.5674 53.6188 50.0095 53.6188 50.0095L59.9713 52.0712C59.9713 52.0712 59.3536 54.5041 59.4054 55.3696C59.46 55.6528 59.5372 55.934 59.6363 56.2103L52.5792 53.9222C52.7565 53.736 52.9157 53.5316 53.0548 53.3115Z" fill="#263238"/>
<path d="M59.4535 55.6321C59.5225 55.8918 59.6311 56.2081 59.6311 56.2081L52.574 53.92C52.574 53.92 52.7716 53.7176 52.9203 53.5147L59.4535 55.6321Z" fill="black"/>
<path d="M59.9686 56.4206C59.9839 56.3296 59.963 56.2308 59.9102 56.1457C59.8574 56.0607 59.7771 55.9961 59.6867 55.9663L52.6057 53.671C52.5606 53.6561 52.5144 53.6503 52.4697 53.654C52.425 53.6577 52.3828 53.6709 52.3454 53.6926C52.308 53.7144 52.2763 53.7444 52.2521 53.7809C52.2279 53.8173 52.2116 53.8595 52.2042 53.905C52.1963 53.9499 52.1973 53.9973 52.2072 54.0445C52.2171 54.0916 52.2358 54.1376 52.2621 54.1796C52.2884 54.2216 52.3218 54.259 52.3603 54.2894C52.3989 54.3198 52.4419 54.3427 52.4867 54.3568L59.5678 56.652C59.6126 56.6668 59.6586 56.6726 59.7031 56.669C59.7475 56.6653 59.7896 56.6524 59.8268 56.6309C59.8641 56.6093 59.8958 56.5797 59.9201 56.5436C59.9444 56.5075 59.9609 56.4657 59.9686 56.4206Z" fill="#263238"/>
<path d="M54.5915 53.7719L57.8743 54.8345L57.5215 52.2666C57.5168 52.2215 57.5241 52.1778 57.5427 52.1402C57.5613 52.1027 57.5905 52.0728 57.6269 52.054C57.7852 51.969 57.9203 51.8484 58.0241 51.6997C58.1279 51.5509 58.1981 51.3772 58.2305 51.189C58.2586 51.0637 58.2597 50.9298 58.2338 50.7961C58.2079 50.6624 58.1555 50.5319 58.0801 50.4134C57.7845 49.9676 57.1635 49.7619 56.595 49.6182C56.3281 49.5477 56.0598 49.5845 55.8462 49.7209C55.6326 49.8574 55.4902 50.0829 55.4489 50.3503C55.4022 50.7136 55.497 51.1018 55.7132 51.433C55.741 51.4721 55.7585 51.517 55.7637 51.5626C55.7689 51.6082 55.7615 51.6526 55.7425 51.6905L54.5915 53.7719ZM57.5212 54.4103L55.046 53.6086L56.0049 51.8716C56.0507 51.786 56.0703 51.6851 56.0615 51.5806C56.0526 51.476 56.0157 51.372 55.955 51.2805C55.7837 51.0209 55.707 50.7161 55.7411 50.4298C55.7733 50.2405 55.8767 50.0818 56.0299 49.9866C56.1831 49.8915 56.3744 49.8672 56.564 49.9188C57.0385 50.0375 57.6117 50.2174 57.8319 50.5576C57.8813 50.6394 57.915 50.7287 57.9309 50.8198C57.9468 50.9109 57.9445 51.0017 57.9242 51.0865C57.9003 51.2355 57.8462 51.3734 57.7654 51.4916C57.6845 51.6098 57.5786 51.7058 57.4541 51.7737C57.3703 51.8162 57.3035 51.8848 57.2617 51.9713C57.2198 52.0579 57.2047 52.1588 57.218 52.2621L57.5212 54.4103Z" fill="#263238"/>
<g opacity="0.5">
<path d="M54.5915 53.7719L57.8743 54.8345L57.5215 52.2666C57.5168 52.2215 57.5241 52.1778 57.5427 52.1402C57.5613 52.1027 57.5905 52.0728 57.6269 52.054C57.7852 51.969 57.9203 51.8484 58.0241 51.6997C58.1279 51.5509 58.1981 51.3772 58.2305 51.189C58.2586 51.0637 58.2597 50.9298 58.2338 50.7961C58.2079 50.6624 58.1555 50.5319 58.0801 50.4134C57.7845 49.9676 57.1635 49.7619 56.595 49.6182C56.3281 49.5477 56.0598 49.5845 55.8462 49.7209C55.6326 49.8574 55.4902 50.0829 55.4489 50.3503C55.4022 50.7136 55.497 51.1018 55.7132 51.433C55.741 51.4721 55.7585 51.517 55.7637 51.5626C55.7689 51.6082 55.7615 51.6526 55.7425 51.6905L54.5915 53.7719ZM57.5212 54.4103L55.046 53.6086L56.0049 51.8716C56.0507 51.786 56.0703 51.6851 56.0615 51.5806C56.0526 51.476 56.0157 51.372 55.955 51.2805C55.7837 51.0209 55.707 50.7161 55.7411 50.4298C55.7733 50.2405 55.8767 50.0818 56.0299 49.9866C56.1831 49.8915 56.3744 49.8672 56.564 49.9188C57.0385 50.0375 57.6117 50.2174 57.8319 50.5576C57.8813 50.6394 57.915 50.7287 57.9309 50.8198C57.9468 50.9109 57.9445 51.0017 57.9242 51.0865C57.9003 51.2355 57.8462 51.3734 57.7654 51.4916C57.6845 51.6098 57.5786 51.7058 57.4541 51.7737C57.3703 51.8162 57.3035 51.8848 57.2617 51.9713C57.2198 52.0579 57.2047 52.1588 57.218 52.2621L57.5212 54.4103Z" fill="white" fill-opacity="0.4"/>
</g>
<path d="M44.6055 66.9648L46.7511 54.4318C46.7637 54.3541 46.7453 54.2699 46.6999 54.1975C46.6546 54.1252 46.5858 54.0705 46.5087 54.0454C46.4311 54.0215 46.3518 54.0294 46.288 54.0672C46.2242 54.105 46.1809 54.1698 46.1675 54.2476L44.0226 66.778C44.016 66.8165 44.017 66.857 44.0256 66.8973C44.0342 66.9376 44.0503 66.9769 44.0728 67.0128C44.0953 67.0487 44.1239 67.0806 44.1569 67.1067C44.1899 67.1327 44.2266 67.1523 44.2649 67.1645C44.3032 67.1769 44.3424 67.1816 44.3803 67.1783C44.4182 67.175 44.454 67.1637 44.4857 67.1451C44.5173 67.1266 44.5442 67.1011 44.5648 67.0701C44.5853 67.0392 44.5992 67.0034 44.6055 66.9648Z" fill="#263238"/>
<path d="M46.7043 65.9043L48.2944 56.674C48.307 56.5963 48.2886 56.5121 48.2433 56.4397C48.1979 56.3673 48.1292 56.3126 48.0521 56.2875C47.9744 56.2637 47.8952 56.2715 47.8314 56.3094C47.7675 56.3472 47.7242 56.4119 47.7108 56.4897L46.1215 65.7174C46.1148 65.7559 46.1159 65.7965 46.1245 65.8368C46.1331 65.8771 46.1492 65.9163 46.1717 65.9523C46.1942 65.9882 46.2228 66.0201 46.2558 66.0461C46.2887 66.0721 46.3254 66.0918 46.3638 66.1039C46.441 66.1283 46.5201 66.121 46.5839 66.0836C46.6477 66.0462 46.691 65.9818 46.7043 65.9043Z" fill="#263238"/>
<path d="M63.0783 74.9495C63.1039 74.9581 63.1301 74.9614 63.1555 74.9594C63.1809 74.9573 63.2049 74.9499 63.2262 74.9375C63.2474 74.9252 63.2654 74.9081 63.2792 74.8874C63.2929 74.8666 63.3021 74.8427 63.3062 74.8168L66.0338 58.8924C66.0381 58.8665 66.0374 58.8391 66.0315 58.812C66.0256 58.7849 66.0147 58.7585 65.9995 58.7344C65.9842 58.7103 65.9649 58.6889 65.9427 58.6714C65.9204 58.654 65.8957 58.6409 65.8699 58.6328C65.8443 58.6242 65.818 58.6209 65.7926 58.623C65.7672 58.625 65.7432 58.6324 65.722 58.6448C65.7008 58.6572 65.6827 58.6742 65.669 58.6949C65.6553 58.7157 65.6461 58.7397 65.642 58.7655L62.917 74.691C62.9123 74.7167 62.9128 74.7438 62.9184 74.7708C62.9241 74.7978 62.9347 74.8241 62.9497 74.8482C62.9647 74.8723 62.9839 74.8936 63.0059 74.911C63.028 74.9284 63.0526 74.9415 63.0783 74.9495Z" fill="#263238"/>
<path d="M65.1772 73.889C65.2028 73.8975 65.229 73.9009 65.2544 73.8988C65.2798 73.8968 65.3038 73.8893 65.325 73.877C65.3463 73.8646 65.3643 73.8476 65.378 73.8268C65.3918 73.8061 65.401 73.7821 65.4051 73.7562L67.5616 61.128C67.5702 61.0762 67.5582 61.0199 67.5279 60.9714C67.4977 60.923 67.4518 60.8864 67.4003 60.8695C67.3746 60.861 67.3482 60.8575 67.3227 60.8595C67.2972 60.8615 67.273 60.8688 67.2516 60.881C67.2302 60.8933 67.2119 60.9102 67.1979 60.9308C67.1838 60.9514 67.1743 60.9754 67.1698 61.0012L65.0081 73.6272C65.0037 73.6532 65.0045 73.6805 65.0104 73.7076C65.0163 73.7347 65.0272 73.7611 65.0424 73.7852C65.0576 73.8094 65.0769 73.8308 65.0992 73.8482C65.1214 73.8656 65.1462 73.8788 65.172 73.8868L65.1772 73.889Z" fill="#263238"/>
<path d="M57.9564 67.3279C56.3402 68.2668 54.1045 67.5422 52.9627 65.7094C51.821 63.8765 52.2056 61.6296 53.8217 60.6907C55.4379 59.7518 57.6736 60.4765 58.8154 62.3093C59.9571 64.1421 59.5725 66.389 57.9564 67.3279Z" fill="#5C715E"/>
<path d="M56.6333 65.9756C56.8846 66.0579 57.2139 65.3917 57.3681 64.4869C57.5223 63.5821 57.4436 62.7852 57.1924 62.7028L56.0933 62.3485L55.5317 65.6202L56.6333 65.9756Z" fill="#263238"/>
<path opacity="0.6" d="M56.4003 62.4485C56.5908 62.6621 56.6357 63.4022 56.5088 64.2044C56.3819 65.0066 56.0893 65.6425 55.8478 65.7182L55.5408 65.6183L56.1025 62.3467L56.4003 62.4485Z" fill="black"/>
<path d="M56.406 64.1585L56.0459 61.1855C56.0454 61.1718 56.0406 61.1581 56.0324 61.1463C56.0241 61.1345 56.0128 61.1252 56 61.1199C55.9873 61.1145 55.9738 61.1134 55.9616 61.1166C55.9493 61.1199 55.939 61.1273 55.932 61.1378L54.4393 63.5097C54.4344 63.5147 54.4309 63.521 54.429 63.5281C54.4271 63.5353 54.4269 63.543 54.4284 63.5507L54.9976 66.5913C54.9995 66.6043 55.005 66.617 55.0134 66.6278C55.0218 66.6386 55.0327 66.647 55.0447 66.6521C55.0568 66.6571 55.0696 66.6586 55.0814 66.6562C55.0933 66.6539 55.1037 66.6479 55.1115 66.6389L56.3964 64.1944C56.4022 64.1837 56.4055 64.1715 56.406 64.1585Z" fill="#263238"/>
<path d="M56.8861 70.8218C56.7512 71.1402 56.6786 71.4942 56.6742 71.8547C56.6699 72.2152 56.7338 72.5719 56.8609 72.8953C57.0949 73.455 57.465 73.9065 57.9174 74.1845C59.2951 75.1436 62.4336 77.739 63.3353 78.2173C64.237 78.6957 66.7873 79.7542 67.8573 80.8104C68.9273 81.8666 70.5372 82.4444 70.5372 82.4444L86.1524 82.828C83.8943 82.2526 81.3305 80.6672 81.3305 80.6672C80.7592 79.2897 79.9158 78.1193 78.8808 77.268C78.6705 77.0202 78.4418 76.7983 78.1978 76.6052C76.2628 75.0367 72.7799 74.2768 70.0709 74.1942C67.0079 74.0971 65.6205 72.8491 62.9522 70.8315C60.2838 68.8139 57.4801 69.5107 56.8861 70.8218Z" fill="white"/>
<path opacity="0.4" d="M56.886 70.8218C56.7545 71.1415 56.6837 71.4951 56.6794 71.8548C56.675 72.2146 56.7371 72.5707 56.8609 72.8953C57.1008 71.793 57.5517 70.3459 58.2154 70.6785C59.2757 71.2006 57.7026 72.7277 58.2154 73.495C58.7281 74.2622 61.6693 77.0495 62.9638 75.2795C64.2583 73.5095 66.4293 74.0655 67.0407 75.2795C67.6522 76.4935 69.1092 75.7044 71.4022 75.3208C72.7895 75.078 75.9319 75.9108 78.1997 76.5955C76.2647 75.027 72.7818 74.2671 70.0728 74.1845C67.0098 74.0874 65.6224 72.8394 62.9541 70.8218C60.2858 68.8042 57.4433 69.5107 56.886 70.8218Z" fill="#92E3A9"/>
<path d="M86.1621 82.828C83.904 82.2526 81.3401 80.6672 81.3401 80.6672C80.7689 79.2897 79.9254 78.1193 78.8905 77.268C77.207 75.2504 73.1494 74.2889 70.0883 74.1942C67.0272 74.0995 65.6379 72.8491 62.9696 70.8315C60.3013 68.8139 57.5188 69.3747 56.8861 70.8315C56.4429 71.8464 56.5397 73.2328 57.9174 74.1942C59.2951 75.1557 62.4336 77.7488 63.3353 78.2271C64.237 78.7054 66.7873 79.764 67.8573 80.8201C68.9273 81.8763 70.5372 82.4541 70.5372 82.4541" stroke="#263238" stroke-linecap="round" stroke-linejoin="round"/>
<path d="M63.6197 76.5906C63.6197 76.5906 63.7319 75.0222 64.2002 74.3035" stroke="#263238" stroke-linecap="round" stroke-linejoin="round"/>
<path d="M70.2296 83.0198C70.2296 83.0198 69.6491 83.3258 69.0686 81.7233" stroke="#263238" stroke-linecap="round" stroke-linejoin="round"/>
</svg>
