<svg width="1836" height="849" viewBox="0 0 1836 849" fill="none" xmlns="http://www.w3.org/2000/svg">
<path d="M894.5 268C875.475 243.192 855.498 219.027 834.209 195.906C728.474 73.3155 559.47 -7.01821 389.914 0.905773L374.391 1.11789L363.65 15.2683C291.555 110.257 221.055 206.377 152.152 303.627C139.222 321.877 126.348 340.166 113.53 358.495L83.7717 399.961L131.779 418.665C367.876 513.214 612.926 599.61 826.87 738.751C851.839 756.877 876.16 776.469 894.5 801.5C880.7 773.583 859.166 749.405 836.669 727.131C640.561 551.702 399.508 443.535 160.221 344.335L178.47 404.505C191.512 386.335 204.498 368.126 217.428 349.876C286.332 252.626 353.639 154.244 419.35 54.7319L393.086 69.0944C546.684 52.7573 700.16 103.711 823.847 207.026C848.045 226.296 871.536 246.786 894.5 268Z" fill="white"/>
<path d="M941 267.805C960.025 242.997 980.002 218.832 1001.29 195.71C1107.03 73.1203 1276.03 -7.21346 1445.59 0.710522L1461.11 0.922638L1471.85 15.0731C1543.95 110.062 1614.44 206.181 1683.35 303.432C1696.28 321.681 1709.15 339.97 1721.97 358.3L1751.73 399.766L1703.72 418.47C1467.62 513.019 1222.57 599.415 1008.63 738.556C983.661 756.682 959.34 776.274 941 801.305C954.8 773.388 976.334 749.21 998.831 726.936C1194.94 551.507 1435.99 443.34 1675.28 344.139L1657.03 404.31C1643.99 386.14 1631 367.931 1618.07 349.681C1549.17 252.431 1481.86 154.049 1416.15 54.5366L1442.41 68.8992C1288.82 52.562 1135.34 103.515 1011.65 206.831C987.455 226.101 963.964 246.591 941 267.805Z" fill="white"/>
<path d="M1623 303.5C1636.71 318.336 1650.32 333.24 1663.84 348.213C1714.36 404.166 1763.56 461.078 1811.45 518.951L1835.79 548.66L1795.77 558.712C1695.2 585.299 1592.78 612.543 1491.56 639.466C1319.91 688.343 1141.18 723.235 986.053 810.604C969.736 821.103 953.464 833.641 941 849C949.514 831.088 963.35 814.525 977.704 800.251C1118.51 676.706 1299.86 621.197 1473.51 571.833C1576.47 544.457 1681.14 523.315 1786.23 509.011L1770.55 548.772C1730.08 485.491 1690.93 421.251 1653.09 356.05C1642.97 338.602 1632.94 321.085 1623 303.5Z" fill="white"/>
<circle cx="896.5" cy="227.5" r="94" fill="white" stroke="white"/>
<circle cx="1246" cy="413" r="54.5" fill="white" stroke="white"/>
<circle cx="927.5" cy="564.5" r="54" fill="white" stroke="white"/>
<circle cx="599" cy="427" r="71.5" fill="white" stroke="white"/>
<path d="M585.038 406.549C594.359 420.366 603.679 434.183 613 448C617.771 444.467 622.542 440.935 627.313 437.402C713.192 373.816 799.07 310.23 884.949 246.644C889.72 243.112 894.491 239.579 899.262 236.047C895.767 230.865 892.272 225.684 888.776 220.503C883.714 223.603 878.652 226.704 873.59 229.805C782.468 285.619 691.347 341.433 600.225 397.247C595.163 400.348 590.101 403.449 585.038 406.549Z" fill="white"/>
<path d="M906.261 205.74C898.508 220.494 890.754 235.247 883 250C888.988 252.853 894.976 255.706 900.963 258.558C1008.74 309.909 1116.53 361.26 1224.31 412.61C1230.29 415.463 1236.28 418.316 1242.27 421.169C1245.18 415.636 1248.08 410.104 1250.99 404.572C1245.25 401.258 1239.5 397.944 1233.76 394.63C1130.34 334.981 1026.92 275.331 923.498 215.682C917.752 212.368 912.007 209.054 906.261 205.74Z" fill="white"/>
<path d="M923.692 557.071C926.112 562.149 928.531 567.227 930.951 572.305C936.368 569.983 941.786 567.661 947.203 565.34C1044.72 523.548 1142.23 481.757 1239.75 439.965C1245.17 437.644 1250.58 435.322 1256 433C1249.55 419.459 1243.1 405.917 1236.64 392.376C1231.43 395.121 1226.21 397.866 1221 400.611C1127.11 450.019 1033.22 499.428 939.34 548.836C934.124 551.581 928.908 554.326 923.692 557.071Z" fill="white"/>
<path d="M607.299 406.458C601.532 420.305 595.766 434.153 590 448C595.573 450.067 601.147 452.134 606.72 454.201C707.042 491.406 807.364 528.612 907.686 565.817C913.259 567.884 918.832 569.951 924.406 572.018C926.568 566.825 928.731 561.633 930.893 556.44C925.5 553.94 920.106 551.44 914.713 548.941C817.635 503.946 720.557 458.951 623.478 413.957C618.085 411.457 612.692 408.958 607.299 406.458Z" fill="white"/>
<path d="M213 303C199.293 317.836 185.68 332.74 172.161 347.713C121.642 403.666 72.4404 460.578 24.5546 518.451L0.208508 548.16L40.2285 558.212C140.804 584.799 243.225 612.043 344.439 638.966C516.093 687.843 694.815 722.735 849.947 810.104C866.264 820.603 882.536 833.141 895 848.5C886.486 830.588 872.65 814.025 858.296 799.751C717.49 676.206 536.137 620.697 362.488 571.333C259.534 543.957 154.862 522.815 49.7715 508.511L65.4454 548.272C105.915 484.991 145.069 420.751 182.907 355.55C193.032 338.102 203.063 320.585 213 303Z" fill="white"/>
</svg>
